<svg viewBox="0 0 10000 10000" xmlns="http://www.w3.org/2000/svg">
<path d="M0,0 l10000,0 l0,10000 l-10000,0 z" fill="white"/>
<path d="M5534,6984 l323,0 l0,546 l-323,0 z" fill="#ff00f4" stroke="black" stroke-width="5"/>
<path d="M0,5368 l505,0 l0,368 l-505,0 z" fill="#fe00ff" stroke="black" stroke-width="5"/>
<path d="M6928,860 l159,0 l0,182 l-159,0 z" fill="#fe00ff" stroke="black" stroke-width="5"/>
<path d="M3971,4279 l844,0 l0,671 l-844,0 z" fill="#ff00d8" stroke="black" stroke-width="5"/>
<path d="M0,7954 l3671,0 l0,8 l-3671,0 z" fill="#0000ff" stroke="black" stroke-width="5"/>
<path d="M9516,6395 l484,0 l0,375 l-484,0 z" fill="#6e00ff" stroke="black" stroke-width="5"/>
<path d="M3899,1643 l80,0 l0,201 l-80,0 z" fill="#ff00fe" stroke="black" stroke-width="5"/>
<path d="M9324,3457 l676,0 l0,652 l-676,0 z" fill="#fe00ff" stroke="black" stroke-width="5"/>
<path d="M1215,2649 l1707,0 l0,179 l-1707,0 z" fill="#fc00ff" stroke="black" stroke-width="5"/>
<path d="M1059,5788 l1017,0 l0,368 l-1017,0 z" fill="#ff00f7" stroke="black" stroke-width="5"/>
<path d="M7938,9072 l951,0 l0,928 l-951,0 z" fill="#8400ff" stroke="black" stroke-width="5"/>
<path d="M973,954 l859,0 l0,832 l-859,0 z" fill="#bd00ff" stroke="black" stroke-width="5"/>
<path d="M2970,3173 l612,0 l0,795 l-612,0 z" fill="#fb00ff" stroke="black" stroke-width="5"/>
<path d="M7996,0 l326,0 l0,3335 l-326,0 z" fill="#ff00fe" stroke="black" stroke-width="5"/>
<path d="M5362,8095 l342,0 l0,549 l-342,0 z" fill="#e800ff" stroke="black" stroke-width="5"/>
<path d="M5710,4712 l304,0 l0,307 l-304,0 z" fill="#fb00ff" stroke="black" stroke-width="5"/>
<path d="M3679,7410 l677,0 l0,895 l-677,0 z" fill="#fc00ff" stroke="black" stroke-width="5"/>
<path d="M8333,381 l1667,0 l0,231 l-1667,0 z" fill="#5b00ff" stroke="black" stroke-width="5"/>
<path d="M7230,8675 l1284,0 l0,322 l-1284,0 z" fill="#5500ff" stroke="black" stroke-width="5"/>
<path d="M1281,0 l1218,0 l0,579 l-1218,0 z" fill="#5700ff" stroke="black" stroke-width="5"/>
<path d="M9588,667 l412,0 l0,2288 l-412,0 z" fill="#ff00fe" stroke="black" stroke-width="5"/>
<path d="M2747,8704 l3142,0 l0,660 l-3142,0 z" fill="#ff00ea" stroke="black" stroke-width="5"/>
<path d="M4990,7534 l1280,0 l0,552 l-1280,0 z" fill="#6100ff" stroke="black" stroke-width="5"/>
<path d="M8322,613 l690,0 l0,540 l-690,0 z" fill="#b300ff" stroke="black" stroke-width="5"/>
<path d="M5432,2122 l965,0 l0,653 l-965,0 z" fill="#ff00fd" stroke="black" stroke-width="5"/>
<path d="M7448,8291 l1612,0 l0,333 l-1612,0 z" fill="#ff00fb" stroke="black" stroke-width="5"/>
<path d="M3591,3026 l221,0 l0,559 l-221,0 z" fill="#ff00fb" stroke="black" stroke-width="5"/>
<path d="M6566,8961 l663,0 l0,468 l-663,0 z" fill="#f100ff" stroke="black" stroke-width="5"/>
<path d="M6319,3368 l391,0 l0,603 l-391,0 z" fill="#fe00ff" stroke="black" stroke-width="5"/>
<path d="M9554,6771 l446,0 l0,1911 l-446,0 z" fill="#1600ff" stroke="black" stroke-width="5"/>
<path d="M0,8848 l2398,0 l0,499 l-2398,0 z" fill="#fe00ff" stroke="black" stroke-width="5"/>
<path d="M2731,845 l758,0 l0,663 l-758,0 z" fill="#f600ff" stroke="black" stroke-width="5"/>
<path d="M8329,0 l1671,0 l0,348 l-1671,0 z" fill="#8600ff" stroke="black" stroke-width="5"/>
<path d="M488,7370 l1378,0 l0,581 l-1378,0 z" fill="#ff00fe" stroke="black" stroke-width="5"/>
<path d="M5843,5021 l712,0 l0,1768 l-712,0 z" fill="#4000ff" stroke="black" stroke-width="5"/>
<path d="M4447,1906 l985,0 l0,2171 l-985,0 z" fill="#8e00ff" stroke="black" stroke-width="5"/>
<path d="M4486,5763 l1334,0 l0,470 l-1334,0 z" fill="#ff00fa" stroke="black" stroke-width="5"/>
<path d="M6617,6915 l778,0 l0,1713 l-778,0 z" fill="#ff00fe" stroke="black" stroke-width="5"/>
<path d="M7397,4730 l554,0 l0,2792 l-554,0 z" fill="#7800ff" stroke="black" stroke-width="5"/>
<path d="M2499,0 l726,0 l0,555 l-726,0 z" fill="#fe00ff" stroke="black" stroke-width="5"/>
<path d="M0,8210 l3656,0 l0,476 l-3656,0 z" fill="#a800ff" stroke="black" stroke-width="5"/>
<path d="M8582,1995 l258,0 l0,384 l-258,0 z" fill="#ff00f8" stroke="black" stroke-width="5"/>
<path d="M779,11 l498,0 l0,428 l-498,0 z" fill="#ff00fa" stroke="black" stroke-width="5"/>
<path d="M7313,3455 l1174,0 l0,1005 l-1174,0 z" fill="#ff00fc" stroke="black" stroke-width="5"/>
<path d="M508,7984 l1576,0 l0,219 l-1576,0 z" fill="#ff00fa" stroke="black" stroke-width="5"/>
<path d="M9044,5469 l401,0 l0,202 l-401,0 z" fill="#ff00fc" stroke="black" stroke-width="5"/>
<path d="M6802,0 l125,0 l0,3632 l-125,0 z" fill="#0500ff" stroke="black" stroke-width="5"/>
<path d="M3522,0 l1379,0 l0,1524 l-1379,0 z" fill="#fe00ff" stroke="black" stroke-width="5"/>
<path d="M9031,801 l418,0 l0,1721 l-418,0 z" fill="#f000ff" stroke="black" stroke-width="5"/>
<path d="M5739,4011 l1529,0 l0,502 l-1529,0 z" fill="#8300ff" stroke="black" stroke-width="5"/>
<path d="M1993,705 l1,0 l0,1 l-1,0 z" fill="#0000ff" stroke="black" stroke-width="5"/>
<path d="M4225,9413 l1982,0 l0,587 l-1982,0 z" fill="#fe00ff" stroke="black" stroke-width="5"/>
<path d="M2147,627 l577,0 l0,1001 l-577,0 z" fill="#fc00ff" stroke="black" stroke-width="5"/>
<path d="M8970,8692 l747,0 l0,1308 l-747,0 z" fill="#0a00ff" stroke="black" stroke-width="5"/>
<path d="M2168,4149 l842,0 l0,2180 l-842,0 z" fill="#ef00ff" stroke="black" stroke-width="5"/>
<path d="M580,2072 l3813,0 l0,529 l-3813,0 z" fill="#f900ff" stroke="black" stroke-width="5"/>
<path d="M9868,8762 l132,0 l0,1238 l-132,0 z" fill="#0100ff" stroke="black" stroke-width="5"/>
<path d="M0,2828 l2541,0 l0,1321 l-2541,0 z" fill="#fe00ff" stroke="black" stroke-width="5"/>
<path d="M3093,4103 l865,0 l0,799 l-865,0 z" fill="#e700ff" stroke="black" stroke-width="5"/>
<path d="M9484,4399 l13,0 l0,3873 l-13,0 z" fill="#0000ff" stroke="black" stroke-width="5"/>
<path d="M9449,1266 l123,0 l0,635 l-123,0 z" fill="#ff00fe" stroke="black" stroke-width="5"/>
<path d="M2819,1549 l204,0 l0,328 l-204,0 z" fill="#ff00fa" stroke="black" stroke-width="5"/>
<path d="M5959,7070 l624,0 l0,417 l-624,0 z" fill="#2b00ff" stroke="black" stroke-width="5"/>
<path d="M7448,9037 l477,0 l0,963 l-477,0 z" fill="#fe00ff" stroke="black" stroke-width="5"/>
<path d="M0,0 l377,0 l0,2741 l-377,0 z" fill="#3500ff" stroke="black" stroke-width="5"/>
<path d="M0,4166 l99,0 l0,187 l-99,0 z" fill="#fe00ff" stroke="black" stroke-width="5"/>
<path d="M0,6607 l3779,0 l0,720 l-3779,0 z" fill="#fe00ff" stroke="black" stroke-width="5"/>
<path d="M9567,4135 l433,0 l0,2259 l-433,0 z" fill="#6600ff" stroke="black" stroke-width="5"/>
<path d="M7992,6350 l1473,0 l0,1428 l-1473,0 z" fill="#ff00b5" stroke="black" stroke-width="5"/>
<path d="M7459,0 l524,0 l0,3133 l-524,0 z" fill="#fe00ff" stroke="black" stroke-width="5"/>
<path d="M4901,0 l1878,0 l0,1897 l-1878,0 z" fill="#fa00ff" stroke="black" stroke-width="5"/>
<path d="M8542,1306 l222,0 l0,152 l-222,0 z" fill="#ff00fb" stroke="black" stroke-width="5"/>
<path d="M5715,7461 l60,0 l0,60 l-60,0 z" fill="green"/>
<path d="M5745,7491 l-49.5,-234" stroke="black" stroke-width="5"/>
<path d="M252,5453 l60,0 l0,60 l-60,0 z" fill="green"/>
<path d="M282,5483 l-29.5,69" stroke="black" stroke-width="5"/>
<path d="M6967,927 l60,0 l0,60 l-60,0 z" fill="green"/>
<path d="M6997,957 l10.5,-6" stroke="black" stroke-width="5"/>
<path d="M4053,4404 l60,0 l0,60 l-60,0 z" fill="green"/>
<path d="M4083,4434 l310,180.5" stroke="black" stroke-width="5"/>
<path d="M1909,7925 l60,0 l0,60 l-60,0 z" fill="green"/>
<path d="M1939,7955 l-103.5,3" stroke="black" stroke-width="5"/>
<path d="M9955,6519 l60,0 l0,60 l-60,0 z" fill="green"/>
<path d="M9985,6549 l-227,33.5" stroke="black" stroke-width="5"/>
<path d="M3905,1680 l60,0 l0,60 l-60,0 z" fill="green"/>
<path d="M3935,1710 l4,33.5" stroke="black" stroke-width="5"/>
<path d="M9484,3914 l60,0 l0,60 l-60,0 z" fill="green"/>
<path d="M9514,3944 l148,-161" stroke="black" stroke-width="5"/>
<path d="M2183,2780 l60,0 l0,60 l-60,0 z" fill="green"/>
<path d="M2213,2810 l-144.5,-71.5" stroke="black" stroke-width="5"/>
<path d="M1982,6000 l60,0 l0,60 l-60,0 z" fill="green"/>
<path d="M2012,6030 l-444.5,-58" stroke="black" stroke-width="5"/>
<path d="M8624,9334 l60,0 l0,60 l-60,0 z" fill="green"/>
<path d="M8654,9364 l-240.5,172" stroke="black" stroke-width="5"/>
<path d="M1075,1321 l60,0 l0,60 l-60,0 z" fill="green"/>
<path d="M1105,1351 l297.5,19" stroke="black" stroke-width="5"/>
<path d="M3497,3455 l60,0 l0,60 l-60,0 z" fill="green"/>
<path d="M3527,3485 l-251,85.5" stroke="black" stroke-width="5"/>
<path d="M8146,370 l60,0 l0,60 l-60,0 z" fill="green"/>
<path d="M8176,400 l-17,1267.5" stroke="black" stroke-width="5"/>
<path d="M5416,8271 l60,0 l0,60 l-60,0 z" fill="green"/>
<path d="M5446,8301 l87,68.5" stroke="black" stroke-width="5"/>
<path d="M5873,4901 l60,0 l0,60 l-60,0 z" fill="green"/>
<path d="M5903,4931 l-41,-65.5" stroke="black" stroke-width="5"/>
<path d="M3952,7616 l60,0 l0,60 l-60,0 z" fill="green"/>
<path d="M3982,7646 l35.5,211.5" stroke="black" stroke-width="5"/>
<path d="M8853,494 l60,0 l0,60 l-60,0 z" fill="green"/>
<path d="M8883,524 l283.5,-27.5" stroke="black" stroke-width="5"/>
<path d="M7513,8761 l60,0 l0,60 l-60,0 z" fill="green"/>
<path d="M7543,8791 l329,45" stroke="black" stroke-width="5"/>
<path d="M2468,3 l60,0 l0,60 l-60,0 z" fill="green"/>
<path d="M2498,33 l-608,256.5" stroke="black" stroke-width="5"/>
<path d="M9833,1723 l60,0 l0,60 l-60,0 z" fill="green"/>
<path d="M9863,1753 l-69,58" stroke="black" stroke-width="5"/>
<path d="M3966,9177 l60,0 l0,60 l-60,0 z" fill="green"/>
<path d="M3996,9207 l322,-173" stroke="black" stroke-width="5"/>
<path d="M5581,8055 l60,0 l0,60 l-60,0 z" fill="green"/>
<path d="M5611,8085 l19,-275" stroke="black" stroke-width="5"/>
<path d="M8768,641 l60,0 l0,60 l-60,0 z" fill="green"/>
<path d="M8798,671 l-131,212" stroke="black" stroke-width="5"/>
<path d="M5716,2371 l60,0 l0,60 l-60,0 z" fill="green"/>
<path d="M5746,2401 l168.5,47.5" stroke="black" stroke-width="5"/>
<path d="M7702,8514 l60,0 l0,60 l-60,0 z" fill="green"/>
<path d="M7732,8544 l522,-86.5" stroke="black" stroke-width="5"/>
<path d="M3678,3396 l60,0 l0,60 l-60,0 z" fill="green"/>
<path d="M3708,3426 l-6.5,-120.5" stroke="black" stroke-width="5"/>
<path d="M6949,9167 l60,0 l0,60 l-60,0 z" fill="green"/>
<path d="M6979,9197 l-81.5,-2" stroke="black" stroke-width="5"/>
<path d="M6441,3835 l60,0 l0,60 l-60,0 z" fill="green"/>
<path d="M6471,3865 l43.5,-195.5" stroke="black" stroke-width="5"/>
<path d="M9524,7980 l60,0 l0,60 l-60,0 z" fill="green"/>
<path d="M9554,8010 l223,-283.5" stroke="black" stroke-width="5"/>
<path d="M1951,9022 l60,0 l0,60 l-60,0 z" fill="green"/>
<path d="M1981,9052 l-782,45.5" stroke="black" stroke-width="5"/>
<path d="M2920,1286 l60,0 l0,60 l-60,0 z" fill="green"/>
<path d="M2950,1316 l160,-139.5" stroke="black" stroke-width="5"/>
<path d="M9664,232 l60,0 l0,60 l-60,0 z" fill="green"/>
<path d="M9694,262 l-529.5,-88" stroke="black" stroke-width="5"/>
<path d="M1759,7844 l60,0 l0,60 l-60,0 z" fill="green"/>
<path d="M1789,7874 l-612,-213.5" stroke="black" stroke-width="5"/>
<path d="M6188,5273 l60,0 l0,60 l-60,0 z" fill="green"/>
<path d="M6218,5303 l-19,602" stroke="black" stroke-width="5"/>
<path d="M5401,1876 l60,0 l0,60 l-60,0 z" fill="green"/>
<path d="M5431,1906 l-491.5,1085.5" stroke="black" stroke-width="5"/>
<path d="M5597,5966 l60,0 l0,60 l-60,0 z" fill="green"/>
<path d="M5627,5996 l-474,2" stroke="black" stroke-width="5"/>
<path d="M6842,6982 l60,0 l0,60 l-60,0 z" fill="green"/>
<path d="M6872,7012 l134,759.5" stroke="black" stroke-width="5"/>
<path d="M7920,6394 l60,0 l0,60 l-60,0 z" fill="green"/>
<path d="M7950,6424 l-276,-298" stroke="black" stroke-width="5"/>
<path d="M2635,-18 l60,0 l0,60 l-60,0 z" fill="green"/>
<path d="M2665,12 l197,265.5" stroke="black" stroke-width="5"/>
<path d="M1107,8180 l60,0 l0,60 l-60,0 z" fill="green"/>
<path d="M1137,8210 l691,238" stroke="black" stroke-width="5"/>
<path d="M8662,2205 l60,0 l0,60 l-60,0 z" fill="green"/>
<path d="M8692,2235 l19,-48" stroke="black" stroke-width="5"/>
<path d="M1129,175 l60,0 l0,60 l-60,0 z" fill="green"/>
<path d="M1159,205 l-131,20" stroke="black" stroke-width="5"/>
<path d="M7981,3907 l60,0 l0,60 l-60,0 z" fill="green"/>
<path d="M8011,3937 l-111,20.5" stroke="black" stroke-width="5"/>
<path d="M841,8124 l60,0 l0,60 l-60,0 z" fill="green"/>
<path d="M871,8154 l425,-60.5" stroke="black" stroke-width="5"/>
<path d="M9090,5504 l60,0 l0,60 l-60,0 z" fill="green"/>
<path d="M9120,5534 l124.5,36" stroke="black" stroke-width="5"/>
<path d="M6777,1118 l60,0 l0,60 l-60,0 z" fill="green"/>
<path d="M6807,1148 l57.5,668" stroke="black" stroke-width="5"/>
<path d="M4430,1159 l60,0 l0,60 l-60,0 z" fill="green"/>
<path d="M4460,1189 l-248.5,-427" stroke="black" stroke-width="5"/>
<path d="M9253,1752 l60,0 l0,60 l-60,0 z" fill="green"/>
<path d="M9283,1782 l-43,-120.5" stroke="black" stroke-width="5"/>
<path d="M6290,4262 l60,0 l0,60 l-60,0 z" fill="green"/>
<path d="M6320,4292 l183.5,-30" stroke="black" stroke-width="5"/>
<path d="M1963,675 l60,0 l0,60 l-60,0 z" fill="green"/>
<path d="M1993,705 l0.5,0.5" stroke="black" stroke-width="5"/>
<path d="M4577,9884 l60,0 l0,60 l-60,0 z" fill="green"/>
<path d="M4607,9914 l609,-207.5" stroke="black" stroke-width="5"/>
<path d="M2436,832 l60,0 l0,60 l-60,0 z" fill="green"/>
<path d="M2466,862 l-30.5,265.5" stroke="black" stroke-width="5"/>
<path d="M8940,8662 l60,0 l0,60 l-60,0 z" fill="green"/>
<path d="M8970,8692 l373.5,654" stroke="black" stroke-width="5"/>
<path d="M2138,5551 l60,0 l0,60 l-60,0 z" fill="green"/>
<path d="M2168,5581 l421,-342" stroke="black" stroke-width="5"/>
<path d="M1525,2265 l60,0 l0,60 l-60,0 z" fill="green"/>
<path d="M1555,2295 l931.5,41.5" stroke="black" stroke-width="5"/>
<path d="M9838,9480 l60,0 l0,60 l-60,0 z" fill="green"/>
<path d="M9868,9510 l66,-129" stroke="black" stroke-width="5"/>
<path d="M1097,3767 l60,0 l0,60 l-60,0 z" fill="green"/>
<path d="M1127,3797 l143.5,-308.5" stroke="black" stroke-width="5"/>
<path d="M3291,4451 l60,0 l0,60 l-60,0 z" fill="green"/>
<path d="M3321,4481 l204.5,21.5" stroke="black" stroke-width="5"/>
<path d="M9466,6324 l60,0 l0,60 l-60,0 z" fill="green"/>
<path d="M9496,6354 l-5.5,-18.5" stroke="black" stroke-width="5"/>
<path d="M9507,1608 l60,0 l0,60 l-60,0 z" fill="green"/>
<path d="M9537,1638 l-26.5,-54.5" stroke="black" stroke-width="5"/>
<path d="M2924,1628 l60,0 l0,60 l-60,0 z" fill="green"/>
<path d="M2954,1658 l-33,55" stroke="black" stroke-width="5"/>
<path d="M6552,7182 l60,0 l0,60 l-60,0 z" fill="green"/>
<path d="M6582,7212 l-311,66.5" stroke="black" stroke-width="5"/>
<path d="M7848,9348 l60,0 l0,60 l-60,0 z" fill="green"/>
<path d="M7878,9378 l-191.5,140.5" stroke="black" stroke-width="5"/>
<path d="M-2,2710 l60,0 l0,60 l-60,0 z" fill="green"/>
<path d="M28,2740 l160.5,-1369.5" stroke="black" stroke-width="5"/>
<path d="M-13,4202 l60,0 l0,60 l-60,0 z" fill="green"/>
<path d="M17,4232 l32.5,27.5" stroke="black" stroke-width="5"/>
<path d="M2646,6989 l60,0 l0,60 l-60,0 z" fill="green"/>
<path d="M2676,7019 l-786.5,-52" stroke="black" stroke-width="5"/>
<path d="M9537,5655 l60,0 l0,60 l-60,0 z" fill="green"/>
<path d="M9567,5685 l216.5,-420.5" stroke="black" stroke-width="5"/>
<path d="M9034,7747 l60,0 l0,60 l-60,0 z" fill="green"/>
<path d="M9064,7777 l-335.5,-713" stroke="black" stroke-width="5"/>
<path d="M7779,1616 l60,0 l0,60 l-60,0 z" fill="green"/>
<path d="M7809,1646 l-88,-79.5" stroke="black" stroke-width="5"/>
<path d="M6207,493 l60,0 l0,60 l-60,0 z" fill="green"/>
<path d="M6237,523 l-397,425.5" stroke="black" stroke-width="5"/>
<path d="M8622,1385 l60,0 l0,60 l-60,0 z" fill="green"/>
<path d="M8652,1415 l1,-33" stroke="black" stroke-width="5"/>
<text font-size="166.66666666666669" text-anchor="middle" x="5695.5" y="7315.333333333333">
0
</text>
<text font-size="166.66666666666669" text-anchor="middle" x="252.5" y="5610.333333333333">
1
</text>
<text font-size="166.66666666666669" text-anchor="middle" x="7007.5" y="1009.3333333333334">
2
</text>
<text font-size="166.66666666666669" text-anchor="middle" x="4393" y="4672.833333333333">
3
</text>
<text font-size="166.66666666666669" text-anchor="middle" x="1835.5" y="8016.333333333333">
4
</text>
<text font-size="166.66666666666669" text-anchor="middle" x="9758" y="6640.833333333333">
5
</text>
<text font-size="166.66666666666669" text-anchor="middle" x="3939" y="1801.8333333333333">
6
</text>
<text font-size="166.66666666666669" text-anchor="middle" x="9662" y="3841.3333333333335">
7
</text>
<text font-size="166.66666666666669" text-anchor="middle" x="2068.5" y="2796.8333333333335">
8
</text>
<text font-size="166.66666666666669" text-anchor="middle" x="1567.5" y="6030.333333333333">
9
</text>
<text font-size="166.66666666666669" text-anchor="middle" x="8413.5" y="9594.333333333334">
10
</text>
<text font-size="166.66666666666669" text-anchor="middle" x="1402.5" y="1428.3333333333333">
11
</text>
<text font-size="166.66666666666669" text-anchor="middle" x="3276" y="3628.8333333333335">
12
</text>
<text font-size="166.66666666666669" text-anchor="middle" x="8159" y="1725.8333333333333">
13
</text>
<text font-size="166.66666666666669" text-anchor="middle" x="5533" y="8427.833333333334">
14
</text>
<text font-size="166.66666666666669" text-anchor="middle" x="5862" y="4923.833333333333">
15
</text>
<text font-size="166.66666666666669" text-anchor="middle" x="4017.5" y="7915.833333333333">
16
</text>
<text font-size="166.66666666666669" text-anchor="middle" x="9166.5" y="554.8333333333334">
17
</text>
<text font-size="166.66666666666669" text-anchor="middle" x="7872" y="8894.333333333334">
18
</text>
<text font-size="166.66666666666669" text-anchor="middle" x="1890" y="347.8333333333333">
19
</text>
<text font-size="166.66666666666669" text-anchor="middle" x="9794" y="1869.3333333333333">
20
</text>
<text font-size="166.66666666666669" text-anchor="middle" x="4318" y="9092.333333333334">
21
</text>
<text font-size="166.66666666666669" text-anchor="middle" x="5630" y="7868.333333333333">
22
</text>
<text font-size="166.66666666666669" text-anchor="middle" x="8667" y="941.3333333333334">
23
</text>
<text font-size="166.66666666666669" text-anchor="middle" x="5914.5" y="2506.8333333333335">
24
</text>
<text font-size="166.66666666666669" text-anchor="middle" x="8254" y="8515.833333333334">
25
</text>
<text font-size="166.66666666666669" text-anchor="middle" x="3701.5" y="3363.8333333333335">
26
</text>
<text font-size="166.66666666666669" text-anchor="middle" x="6897.5" y="9253.333333333334">
27
</text>
<text font-size="166.66666666666669" text-anchor="middle" x="6514.5" y="3727.8333333333335">
28
</text>
<text font-size="166.66666666666669" text-anchor="middle" x="9777" y="7784.833333333333">
29
</text>
<text font-size="166.66666666666669" text-anchor="middle" x="1199" y="9155.833333333334">
30
</text>
<text font-size="166.66666666666669" text-anchor="middle" x="3110" y="1234.8333333333333">
31
</text>
<text font-size="166.66666666666669" text-anchor="middle" x="9164.5" y="232.33333333333334">
32
</text>
<text font-size="166.66666666666669" text-anchor="middle" x="1177" y="7718.833333333333">
33
</text>
<text font-size="166.66666666666669" text-anchor="middle" x="6199" y="5963.333333333333">
34
</text>
<text font-size="166.66666666666669" text-anchor="middle" x="4939.5" y="3049.8333333333335">
35
</text>
<text font-size="166.66666666666669" text-anchor="middle" x="5153" y="6056.333333333333">
36
</text>
<text font-size="166.66666666666669" text-anchor="middle" x="7006" y="7829.833333333333">
37
</text>
<text font-size="166.66666666666669" text-anchor="middle" x="7674" y="6184.333333333333">
38
</text>
<text font-size="166.66666666666669" text-anchor="middle" x="2862" y="335.8333333333333">
39
</text>
<text font-size="166.66666666666669" text-anchor="middle" x="1828" y="8506.333333333334">
40
</text>
<text font-size="166.66666666666669" text-anchor="middle" x="8711" y="2245.3333333333335">
41
</text>
<text font-size="166.66666666666669" text-anchor="middle" x="1028" y="283.3333333333333">
42
</text>
<text font-size="166.66666666666669" text-anchor="middle" x="7900" y="4015.8333333333335">
43
</text>
<text font-size="166.66666666666669" text-anchor="middle" x="1296" y="8151.833333333333">
44
</text>
<text font-size="166.66666666666669" text-anchor="middle" x="9244.5" y="5628.333333333333">
45
</text>
<text font-size="166.66666666666669" text-anchor="middle" x="6864.5" y="1874.3333333333333">
46
</text>
<text font-size="166.66666666666669" text-anchor="middle" x="4211.5" y="820.3333333333334">
47
</text>
<text font-size="166.66666666666669" text-anchor="middle" x="9240" y="1719.8333333333333">
48
</text>
<text font-size="166.66666666666669" text-anchor="middle" x="6503.5" y="4320.333333333333">
49
</text>
<text font-size="166.66666666666669" text-anchor="middle" x="1993.5" y="763.8333333333334">
50
</text>
<text font-size="166.66666666666669" text-anchor="middle" x="5216" y="9764.833333333334">
51
</text>
<text font-size="166.66666666666669" text-anchor="middle" x="2435.5" y="1185.8333333333333">
52
</text>
<text font-size="166.66666666666669" text-anchor="middle" x="9343.5" y="9404.333333333334">
53
</text>
<text font-size="166.66666666666669" text-anchor="middle" x="2589" y="5297.333333333333">
54
</text>
<text font-size="166.66666666666669" text-anchor="middle" x="2486.5" y="2394.8333333333335">
55
</text>
<text font-size="166.66666666666669" text-anchor="middle" x="9934" y="9439.333333333334">
56
</text>
<text font-size="166.66666666666669" text-anchor="middle" x="1270.5" y="3546.8333333333335">
57
</text>
<text font-size="166.66666666666669" text-anchor="middle" x="3525.5" y="4560.833333333333">
58
</text>
<text font-size="166.66666666666669" text-anchor="middle" x="9490.5" y="6393.833333333333">
59
</text>
<text font-size="166.66666666666669" text-anchor="middle" x="9510.5" y="1641.8333333333333">
60
</text>
<text font-size="166.66666666666669" text-anchor="middle" x="2921" y="1771.3333333333333">
61
</text>
<text font-size="166.66666666666669" text-anchor="middle" x="6271" y="7336.833333333333">
62
</text>
<text font-size="166.66666666666669" text-anchor="middle" x="7686.5" y="9576.833333333334">
63
</text>
<text font-size="166.66666666666669" text-anchor="middle" x="188.5" y="1428.8333333333333">
64
</text>
<text font-size="166.66666666666669" text-anchor="middle" x="49.5" y="4317.833333333333">
65
</text>
<text font-size="166.66666666666669" text-anchor="middle" x="1889.5" y="7025.333333333333">
66
</text>
<text font-size="166.66666666666669" text-anchor="middle" x="9783.5" y="5322.833333333333">
67
</text>
<text font-size="166.66666666666669" text-anchor="middle" x="8728.5" y="7122.333333333333">
68
</text>
<text font-size="166.66666666666669" text-anchor="middle" x="7721" y="1624.8333333333333">
69
</text>
<text font-size="166.66666666666669" text-anchor="middle" x="5840" y="1006.8333333333334">
70
</text>
<text font-size="166.66666666666669" text-anchor="middle" x="8653" y="1440.3333333333333">
71
</text>
</svg>