<svg viewBox="0 0 10000 10000" xmlns="http://www.w3.org/2000/svg">
<path d="M0,0 l10000,0 l0,10000 l-10000,0 z" fill="white"/>
<path d="M4952,2120 l346,0 l0,966 l-346,0 z" fill="#ff00fe" stroke="black" stroke-width="5"/>
<path d="M5964,8170 l137,0 l0,1128 l-137,0 z" fill="#ff00f6" stroke="black" stroke-width="5"/>
<path d="M6177,5809 l220,0 l0,1700 l-220,0 z" fill="#1400ff" stroke="black" stroke-width="5"/>
<path d="M1251,2755 l158,0 l0,917 l-158,0 z" fill="#ff00ed" stroke="black" stroke-width="5"/>
<path d="M0,2579 l1250,0 l0,1150 l-1250,0 z" fill="#7700ff" stroke="black" stroke-width="5"/>
<path d="M3738,1982 l775,0 l0,455 l-775,0 z" fill="#ff00fd" stroke="black" stroke-width="5"/>
<path d="M5303,1 l1071,0 l0,1746 l-1071,0 z" fill="#ff00fe" stroke="black" stroke-width="5"/>
<path d="M6985,645 l880,0 l0,572 l-880,0 z" fill="#ff00fd" stroke="black" stroke-width="5"/>
<path d="M5942,2455 l1012,0 l0,1654 l-1012,0 z" fill="#6600ff" stroke="black" stroke-width="5"/>
<path d="M0,9756 l2229,0 l0,244 l-2229,0 z" fill="#9600ff" stroke="black" stroke-width="5"/>
<path d="M1204,5050 l1080,0 l0,264 l-1080,0 z" fill="#fd00ff" stroke="black" stroke-width="5"/>
<path d="M3853,1139 l1436,0 l0,417 l-1436,0 z" fill="#fe00ff" stroke="black" stroke-width="5"/>
<path d="M7742,7905 l1338,0 l0,1699 l-1338,0 z" fill="#ff00fe" stroke="black" stroke-width="5"/>
<path d="M6177,7516 l445,0 l0,913 l-445,0 z" fill="#ff00fe" stroke="black" stroke-width="5"/>
<path d="M6920,326 l375,0 l0,229 l-375,0 z" fill="#ff00e9" stroke="black" stroke-width="5"/>
<path d="M0,8913 l2230,0 l0,842 l-2230,0 z" fill="#dd00ff" stroke="black" stroke-width="5"/>
<path d="M3329,7830 l1044,0 l0,99 l-1044,0 z" fill="#ff00e6" stroke="black" stroke-width="5"/>
<path d="M2385,5243 l2609,0 l0,161 l-2609,0 z" fill="#ff00fe" stroke="black" stroke-width="5"/>
<path d="M8958,2443 l150,0 l0,1008 l-150,0 z" fill="#ff00fb" stroke="black" stroke-width="5"/>
<path d="M8576,0 l1404,0 l0,2404 l-1404,0 z" fill="#fe00ff" stroke="black" stroke-width="5"/>
<path d="M9552,5770 l362,0 l0,282 l-362,0 z" fill="#ff00dd" stroke="black" stroke-width="5"/>
<path d="M4850,7147 l1324,0 l0,1022 l-1324,0 z" fill="#ff00fe" stroke="black" stroke-width="5"/>
<path d="M6397,5773 l746,0 l0,1148 l-746,0 z" fill="#da00ff" stroke="black" stroke-width="5"/>
<path d="M4009,5773 l2168,0 l0,1373 l-2168,0 z" fill="#ff00fe" stroke="black" stroke-width="5"/>
<path d="M9214,5151 l209,0 l0,3555 l-209,0 z" fill="#fe00ff" stroke="black" stroke-width="5"/>
<path d="M2729,5437 l750,0 l0,941 l-750,0 z" fill="#ff00fe" stroke="black" stroke-width="5"/>
<path d="M5098,4910 l1968,0 l0,863 l-1968,0 z" fill="#8d00ff" stroke="black" stroke-width="5"/>
<path d="M2761,8165 l582,0 l0,1835 l-582,0 z" fill="#e900ff" stroke="black" stroke-width="5"/>
<path d="M2771,7937 l2077,0 l0,228 l-2077,0 z" fill="#fe00ff" stroke="black" stroke-width="5"/>
<path d="M3343,8170 l2620,0 l0,176 l-2620,0 z" fill="#fe00ff" stroke="black" stroke-width="5"/>
<path d="M2112,5466 l592,0 l0,1209 l-592,0 z" fill="#ff00fe" stroke="black" stroke-width="5"/>
<path d="M2003,501 l1847,0 l0,1404 l-1847,0 z" fill="#8c00ff" stroke="black" stroke-width="5"/>
<path d="M7757,6699 l1336,0 l0,1033 l-1336,0 z" fill="#ff00fe" stroke="black" stroke-width="5"/>
<path d="M3345,8346 l1146,0 l0,1654 l-1146,0 z" fill="#fb00ff" stroke="black" stroke-width="5"/>
<path d="M573,6624 l573,0 l0,681 l-573,0 z" fill="#ff00fc" stroke="black" stroke-width="5"/>
<path d="M6401,5 l1559,0 l0,127 l-1559,0 z" fill="#ff00f3" stroke="black" stroke-width="5"/>
<path d="M1208,0 l2933,0 l0,352 l-2933,0 z" fill="#a700ff" stroke="black" stroke-width="5"/>
<path d="M7143,1818 l249,0 l0,5049 l-249,0 z" fill="#9400ff" stroke="black" stroke-width="5"/>
<path d="M6850,1231 l1718,0 l0,586 l-1718,0 z" fill="#ff00fe" stroke="black" stroke-width="5"/>
<path d="M1702,2579 l584,0 l0,2471 l-584,0 z" fill="#fe00ff" stroke="black" stroke-width="5"/>
<path d="M6375,175 l472,0 l0,2273 l-472,0 z" fill="#ff00fe" stroke="black" stroke-width="5"/>
<path d="M0,3731 l1701,0 l0,826 l-1701,0 z" fill="#ae00ff" stroke="black" stroke-width="5"/>
<path d="M2286,1912 l1393,0 l0,3330 l-1393,0 z" fill="#fd00ff" stroke="black" stroke-width="5"/>
<path d="M8162,3754 l658,0 l0,359 l-658,0 z" fill="#ff00f8" stroke="black" stroke-width="5"/>
<path d="M4232,3159 l1084,0 l0,888 l-1084,0 z" fill="#ff00fe" stroke="black" stroke-width="5"/>
<path d="M3679,4278 l3464,0 l0,573 l-3464,0 z" fill="#c700ff" stroke="black" stroke-width="5"/>
<path d="M0,0 l1208,0 l0,351 l-1208,0 z" fill="#ab00ff" stroke="black" stroke-width="5"/>
<path d="M1206,5314 l905,0 l0,3599 l-905,0 z" fill="#fe00ff" stroke="black" stroke-width="5"/>
<path d="M7472,2023 l19,0 l0,4632 l-19,0 z" fill="#0000ff" stroke="black" stroke-width="5"/>
<path d="M0,353 l2003,0 l0,711 l-2003,0 z" fill="#7700ff" stroke="black" stroke-width="5"/>
<path d="M4,6024 l595,0 l0,99 l-595,0 z" fill="#ff00b0" stroke="black" stroke-width="5"/>
<path d="M3949,4955 l1080,0 l0,143 l-1080,0 z" fill="#ff00e8" stroke="black" stroke-width="5"/>
<path d="M5331,1748 l539,0 l0,2527 l-539,0 z" fill="#6e00ff" stroke="black" stroke-width="5"/>
<path d="M6664,6924 l1078,0 l0,3076 l-1078,0 z" fill="#ff00fe" stroke="black" stroke-width="5"/>
<path d="M9423,6052 l577,0 l0,3948 l-577,0 z" fill="#8800ff" stroke="black" stroke-width="5"/>
<path d="M6170,8441 l493,0 l0,1400 l-493,0 z" fill="#ff00fd" stroke="black" stroke-width="5"/>
<path d="M0,1064 l2003,0 l0,1515 l-2003,0 z" fill="#fe00ff" stroke="black" stroke-width="5"/>
<path d="M2230,6675 l531,0 l0,3325 l-531,0 z" fill="#fe00ff" stroke="black" stroke-width="5"/>
<path d="M4491,8545 l1075,0 l0,690 l-1075,0 z" fill="#ff00fd" stroke="black" stroke-width="5"/>
<path d="M3870,6105 l139,0 l0,1351 l-139,0 z" fill="#ff00fa" stroke="black" stroke-width="5"/>
<path d="M4141,1 l1151,0 l0,1104 l-1151,0 z" fill="#ff00fe" stroke="black" stroke-width="5"/>
<path d="M7493,4188 l2463,0 l0,459 l-2463,0 z" fill="#ff00fe" stroke="black" stroke-width="5"/>
<path d="M3818,2476 l390,0 l0,1759 l-390,0 z" fill="#ff00fe" stroke="black" stroke-width="5"/>
<path d="M0,4557 l1204,0 l0,1467 l-1204,0 z" fill="#fe00ff" stroke="black" stroke-width="5"/>
<path d="M7499,4650 l1283,0 l0,1735 l-1283,0 z" fill="#ff00fe" stroke="black" stroke-width="5"/>
<path d="M5092,2576 l60,0 l0,60 l-60,0 z" fill="green"/>
<path d="M5122,2606 l3,-3" stroke="black" stroke-width="5"/>
<path d="M5937,8140 l60,0 l0,60 l-60,0 z" fill="green"/>
<path d="M5967,8170 l65.5,564" stroke="black" stroke-width="5"/>
<path d="M6363,5785 l60,0 l0,60 l-60,0 z" fill="green"/>
<path d="M6393,5815 l-106,844" stroke="black" stroke-width="5"/>
<path d="M1222,3624 l60,0 l0,60 l-60,0 z" fill="green"/>
<path d="M1252,3654 l78,-440.5" stroke="black" stroke-width="5"/>
<path d="M275,2786 l60,0 l0,60 l-60,0 z" fill="green"/>
<path d="M305,2816 l320,338" stroke="black" stroke-width="5"/>
<path d="M3869,2183 l60,0 l0,60 l-60,0 z" fill="green"/>
<path d="M3899,2213 l226.5,-3.5" stroke="black" stroke-width="5"/>
<path d="M5536,533 l60,0 l0,60 l-60,0 z" fill="green"/>
<path d="M5566,563 l272.5,311" stroke="black" stroke-width="5"/>
<path d="M7567,1184 l60,0 l0,60 l-60,0 z" fill="green"/>
<path d="M7597,1214 l-172,-283" stroke="black" stroke-width="5"/>
<path d="M6532,4066 l60,0 l0,60 l-60,0 z" fill="green"/>
<path d="M6562,4096 l-114,-814" stroke="black" stroke-width="5"/>
<path d="M426,9747 l60,0 l0,60 l-60,0 z" fill="green"/>
<path d="M456,9777 l658.5,101" stroke="black" stroke-width="5"/>
<path d="M1988,5026 l60,0 l0,60 l-60,0 z" fill="green"/>
<path d="M2018,5056 l-274,126" stroke="black" stroke-width="5"/>
<path d="M3828,1112 l60,0 l0,60 l-60,0 z" fill="green"/>
<path d="M3858,1142 l713,205.5" stroke="black" stroke-width="5"/>
<path d="M7713,7904 l60,0 l0,60 l-60,0 z" fill="green"/>
<path d="M7743,7934 l668,820.5" stroke="black" stroke-width="5"/>
<path d="M6331,7544 l60,0 l0,60 l-60,0 z" fill="green"/>
<path d="M6361,7574 l38.5,398.5" stroke="black" stroke-width="5"/>
<path d="M7221,506 l60,0 l0,60 l-60,0 z" fill="green"/>
<path d="M7251,536 l-143.5,-95.5" stroke="black" stroke-width="5"/>
<path d="M502,9718 l60,0 l0,60 l-60,0 z" fill="green"/>
<path d="M532,9748 l583,-414" stroke="black" stroke-width="5"/>
<path d="M3894,7887 l60,0 l0,60 l-60,0 z" fill="green"/>
<path d="M3924,7917 l-73,-37.5" stroke="black" stroke-width="5"/>
<path d="M2936,5220 l60,0 l0,60 l-60,0 z" fill="green"/>
<path d="M2966,5250 l723.5,73.5" stroke="black" stroke-width="5"/>
<path d="M9017,2422 l60,0 l0,60 l-60,0 z" fill="green"/>
<path d="M9047,2452 l-14,495" stroke="black" stroke-width="5"/>
<path d="M9115,1533 l60,0 l0,60 l-60,0 z" fill="green"/>
<path d="M9145,1563 l133,-361" stroke="black" stroke-width="5"/>
<path d="M9605,6020 l60,0 l0,60 l-60,0 z" fill="green"/>
<path d="M9635,6050 l98,-139" stroke="black" stroke-width="5"/>
<path d="M5424,7696 l60,0 l0,60 l-60,0 z" fill="green"/>
<path d="M5454,7726 l58,-68" stroke="black" stroke-width="5"/>
<path d="M6376,6048 l60,0 l0,60 l-60,0 z" fill="green"/>
<path d="M6406,6078 l364,269" stroke="black" stroke-width="5"/>
<path d="M5509,6262 l60,0 l0,60 l-60,0 z" fill="green"/>
<path d="M5539,6292 l-446,167.5" stroke="black" stroke-width="5"/>
<path d="M9391,6675 l60,0 l0,60 l-60,0 z" fill="green"/>
<path d="M9421,6705 l-102.5,223.5" stroke="black" stroke-width="5"/>
<path d="M2724,6011 l60,0 l0,60 l-60,0 z" fill="green"/>
<path d="M2754,6041 l350,-133.5" stroke="black" stroke-width="5"/>
<path d="M6142,5423 l60,0 l0,60 l-60,0 z" fill="green"/>
<path d="M6172,5453 l-90,-111.5" stroke="black" stroke-width="5"/>
<path d="M3162,9239 l60,0 l0,60 l-60,0 z" fill="green"/>
<path d="M3192,9269 l-140,-186.5" stroke="black" stroke-width="5"/>
<path d="M3734,8134 l60,0 l0,60 l-60,0 z" fill="green"/>
<path d="M3764,8164 l45.5,-113" stroke="black" stroke-width="5"/>
<path d="M3924,8314 l60,0 l0,60 l-60,0 z" fill="green"/>
<path d="M3954,8344 l699,-86" stroke="black" stroke-width="5"/>
<path d="M2082,6644 l60,0 l0,60 l-60,0 z" fill="green"/>
<path d="M2112,6674 l296,-603.5" stroke="black" stroke-width="5"/>
<path d="M2877,1406 l60,0 l0,60 l-60,0 z" fill="green"/>
<path d="M2907,1436 l19.5,-233" stroke="black" stroke-width="5"/>
<path d="M7739,7452 l60,0 l0,60 l-60,0 z" fill="green"/>
<path d="M7769,7482 l656,-266.5" stroke="black" stroke-width="5"/>
<path d="M3532,9080 l60,0 l0,60 l-60,0 z" fill="green"/>
<path d="M3562,9110 l356,63" stroke="black" stroke-width="5"/>
<path d="M1037,6960 l60,0 l0,60 l-60,0 z" fill="green"/>
<path d="M1067,6990 l-207.5,-25.5" stroke="black" stroke-width="5"/>
<path d="M6416,95 l60,0 l0,60 l-60,0 z" fill="green"/>
<path d="M6446,125 l734.5,-56.5" stroke="black" stroke-width="5"/>
<path d="M1520,57 l60,0 l0,60 l-60,0 z" fill="green"/>
<path d="M1550,87 l1124.5,89" stroke="black" stroke-width="5"/>
<path d="M7119,4487 l60,0 l0,60 l-60,0 z" fill="green"/>
<path d="M7149,4517 l118.5,-174.5" stroke="black" stroke-width="5"/>
<path d="M7450,1691 l60,0 l0,60 l-60,0 z" fill="green"/>
<path d="M7480,1721 l229,-197" stroke="black" stroke-width="5"/>
<path d="M2098,3473 l60,0 l0,60 l-60,0 z" fill="green"/>
<path d="M2128,3503 l-134,311.5" stroke="black" stroke-width="5"/>
<path d="M6715,2364 l60,0 l0,60 l-60,0 z" fill="green"/>
<path d="M6745,2394 l-134,-1082.5" stroke="black" stroke-width="5"/>
<path d="M29,4216 l60,0 l0,60 l-60,0 z" fill="green"/>
<path d="M59,4246 l791.5,-102" stroke="black" stroke-width="5"/>
<path d="M2758,3510 l60,0 l0,60 l-60,0 z" fill="green"/>
<path d="M2788,3540 l194.5,37" stroke="black" stroke-width="5"/>
<path d="M8657,4041 l60,0 l0,60 l-60,0 z" fill="green"/>
<path d="M8687,4071 l-196,-137.5" stroke="black" stroke-width="5"/>
<path d="M5228,3604 l60,0 l0,60 l-60,0 z" fill="green"/>
<path d="M5258,3634 l-484,-31" stroke="black" stroke-width="5"/>
<path d="M5861,4263 l60,0 l0,60 l-60,0 z" fill="green"/>
<path d="M5891,4293 l-480,271.5" stroke="black" stroke-width="5"/>
<path d="M1022,173 l60,0 l0,60 l-60,0 z" fill="green"/>
<path d="M1052,203 l-448,-27.5" stroke="black" stroke-width="5"/>
<path d="M1492,7624 l60,0 l0,60 l-60,0 z" fill="green"/>
<path d="M1522,7654 l136.5,-540.5" stroke="black" stroke-width="5"/>
<path d="M7451,5075 l60,0 l0,60 l-60,0 z" fill="green"/>
<path d="M7481,5105 l0.5,-766" stroke="black" stroke-width="5"/>
<path d="M1143,605 l60,0 l0,60 l-60,0 z" fill="green"/>
<path d="M1173,635 l-171.5,73.5" stroke="black" stroke-width="5"/>
<path d="M-25,5994 l60,0 l0,60 l-60,0 z" fill="green"/>
<path d="M5,6024 l296.5,49.5" stroke="black" stroke-width="5"/>
<path d="M4996,4950 l60,0 l0,60 l-60,0 z" fill="green"/>
<path d="M5026,4980 l-537,46.5" stroke="black" stroke-width="5"/>
<path d="M5304,3965 l60,0 l0,60 l-60,0 z" fill="green"/>
<path d="M5334,3995 l266.5,-983.5" stroke="black" stroke-width="5"/>
<path d="M7506,8150 l60,0 l0,60 l-60,0 z" fill="green"/>
<path d="M7536,8180 l-333,282" stroke="black" stroke-width="5"/>
<path d="M9603,7217 l60,0 l0,60 l-60,0 z" fill="green"/>
<path d="M9633,7247 l78.5,779" stroke="black" stroke-width="5"/>
<path d="M6630,8474 l60,0 l0,60 l-60,0 z" fill="green"/>
<path d="M6660,8504 l-243.5,637" stroke="black" stroke-width="5"/>
<path d="M1338,1824 l60,0 l0,60 l-60,0 z" fill="green"/>
<path d="M1368,1854 l-366.5,-32.5" stroke="black" stroke-width="5"/>
<path d="M2457,9106 l60,0 l0,60 l-60,0 z" fill="green"/>
<path d="M2487,9136 l8.5,-798.5" stroke="black" stroke-width="5"/>
<path d="M4461,8710 l60,0 l0,60 l-60,0 z" fill="green"/>
<path d="M4491,8740 l537.5,150" stroke="black" stroke-width="5"/>
<path d="M3978,6229 l60,0 l0,60 l-60,0 z" fill="green"/>
<path d="M4008,6259 l-68.5,521.5" stroke="black" stroke-width="5"/>
<path d="M4112,822 l60,0 l0,60 l-60,0 z" fill="green"/>
<path d="M4142,852 l574.5,-299" stroke="black" stroke-width="5"/>
<path d="M8094,4364 l60,0 l0,60 l-60,0 z" fill="green"/>
<path d="M8124,4394 l600.5,23.5" stroke="black" stroke-width="5"/>
<path d="M3895,3570 l60,0 l0,60 l-60,0 z" fill="green"/>
<path d="M3925,3600 l88,-244.5" stroke="black" stroke-width="5"/>
<path d="M626,5354 l60,0 l0,60 l-60,0 z" fill="green"/>
<path d="M656,5384 l-54,-93.5" stroke="black" stroke-width="5"/>
<path d="M8019,5983 l60,0 l0,60 l-60,0 z" fill="green"/>
<path d="M8049,6013 l91.5,-495.5" stroke="black" stroke-width="5"/>
<text font-size="175.41160386140584" text-anchor="middle" x="5125" y="2664.394061351492">
0
</text>
<text font-size="175.41160386140584" text-anchor="middle" x="6032.5" y="8795.394061351491">
1
</text>
<text font-size="175.41160386140584" text-anchor="middle" x="6287" y="6720.394061351492">
2
</text>
<text font-size="175.41160386140584" text-anchor="middle" x="1330" y="3274.894061351492">
3
</text>
<text font-size="175.41160386140584" text-anchor="middle" x="625" y="3215.394061351492">
4
</text>
<text font-size="175.41160386140584" text-anchor="middle" x="4125.5" y="2270.894061351492">
5
</text>
<text font-size="175.41160386140584" text-anchor="middle" x="5838.5" y="935.394061351492">
6
</text>
<text font-size="175.41160386140584" text-anchor="middle" x="7425" y="992.394061351492">
7
</text>
<text font-size="175.41160386140584" text-anchor="middle" x="6448" y="3343.394061351492">
8
</text>
<text font-size="175.41160386140584" text-anchor="middle" x="1114.5" y="9939.394061351491">
9
</text>
<text font-size="175.41160386140584" text-anchor="middle" x="1744" y="5243.394061351492">
10
</text>
<text font-size="175.41160386140584" text-anchor="middle" x="4571" y="1408.894061351492">
11
</text>
<text font-size="175.41160386140584" text-anchor="middle" x="8411" y="8815.894061351491">
12
</text>
<text font-size="175.41160386140584" text-anchor="middle" x="6399.5" y="8033.894061351492">
13
</text>
<text font-size="175.41160386140584" text-anchor="middle" x="7107.5" y="501.89406135149204">
14
</text>
<text font-size="175.41160386140584" text-anchor="middle" x="1115" y="9395.394061351491">
15
</text>
<text font-size="175.41160386140584" text-anchor="middle" x="3851" y="7940.894061351492">
16
</text>
<text font-size="175.41160386140584" text-anchor="middle" x="3689.5" y="5384.894061351492">
17
</text>
<text font-size="175.41160386140584" text-anchor="middle" x="9033" y="3008.394061351492">
18
</text>
<text font-size="175.41160386140584" text-anchor="middle" x="9278" y="1263.394061351492">
19
</text>
<text font-size="175.41160386140584" text-anchor="middle" x="9733" y="5972.394061351492">
20
</text>
<text font-size="175.41160386140584" text-anchor="middle" x="5512" y="7719.394061351492">
21
</text>
<text font-size="175.41160386140584" text-anchor="middle" x="6770" y="6408.394061351492">
22
</text>
<text font-size="175.41160386140584" text-anchor="middle" x="5093" y="6520.894061351492">
23
</text>
<text font-size="175.41160386140584" text-anchor="middle" x="9318.5" y="6989.894061351492">
24
</text>
<text font-size="175.41160386140584" text-anchor="middle" x="3104" y="5968.894061351492">
25
</text>
<text font-size="175.41160386140584" text-anchor="middle" x="6082" y="5402.894061351492">
26
</text>
<text font-size="175.41160386140584" text-anchor="middle" x="3052" y="9143.894061351491">
27
</text>
<text font-size="175.41160386140584" text-anchor="middle" x="3809.5" y="8112.394061351492">
28
</text>
<text font-size="175.41160386140584" text-anchor="middle" x="4653" y="8319.394061351491">
29
</text>
<text font-size="175.41160386140584" text-anchor="middle" x="2408" y="6131.894061351492">
30
</text>
<text font-size="175.41160386140584" text-anchor="middle" x="2926.5" y="1264.394061351492">
31
</text>
<text font-size="175.41160386140584" text-anchor="middle" x="8425" y="7276.894061351492">
32
</text>
<text font-size="175.41160386140584" text-anchor="middle" x="3918" y="9234.394061351491">
33
</text>
<text font-size="175.41160386140584" text-anchor="middle" x="859.5" y="7025.894061351492">
34
</text>
<text font-size="175.41160386140584" text-anchor="middle" x="7180.5" y="129.89406135149204">
35
</text>
<text font-size="175.41160386140584" text-anchor="middle" x="2674.5" y="237.39406135149204">
36
</text>
<text font-size="175.41160386140584" text-anchor="middle" x="7267.5" y="4403.894061351492">
37
</text>
<text font-size="175.41160386140584" text-anchor="middle" x="7709" y="1585.394061351492">
38
</text>
<text font-size="175.41160386140584" text-anchor="middle" x="1994" y="3875.894061351492">
39
</text>
<text font-size="175.41160386140584" text-anchor="middle" x="6611" y="1372.894061351492">
40
</text>
<text font-size="175.41160386140584" text-anchor="middle" x="850.5" y="4205.394061351492">
41
</text>
<text font-size="175.41160386140584" text-anchor="middle" x="2982.5" y="3638.394061351492">
42
</text>
<text font-size="175.41160386140584" text-anchor="middle" x="8491" y="3994.894061351492">
43
</text>
<text font-size="175.41160386140584" text-anchor="middle" x="4774" y="3664.394061351492">
44
</text>
<text font-size="175.41160386140584" text-anchor="middle" x="5411" y="4625.894061351492">
45
</text>
<text font-size="175.41160386140584" text-anchor="middle" x="604" y="236.89406135149204">
46
</text>
<text font-size="175.41160386140584" text-anchor="middle" x="1658.5" y="7174.894061351492">
47
</text>
<text font-size="175.41160386140584" text-anchor="middle" x="7481.5" y="4400.394061351492">
48
</text>
<text font-size="175.41160386140584" text-anchor="middle" x="1001.5" y="769.894061351492">
49
</text>
<text font-size="175.41160386140584" text-anchor="middle" x="301.5" y="6134.894061351492">
50
</text>
<text font-size="175.41160386140584" text-anchor="middle" x="4489" y="5087.894061351492">
51
</text>
<text font-size="175.41160386140584" text-anchor="middle" x="5600.5" y="3072.894061351492">
52
</text>
<text font-size="175.41160386140584" text-anchor="middle" x="7203" y="8523.394061351491">
53
</text>
<text font-size="175.41160386140584" text-anchor="middle" x="9711.5" y="8087.394061351492">
54
</text>
<text font-size="175.41160386140584" text-anchor="middle" x="6416.5" y="9202.394061351491">
55
</text>
<text font-size="175.41160386140584" text-anchor="middle" x="1001.5" y="1882.894061351492">
56
</text>
<text font-size="175.41160386140584" text-anchor="middle" x="2495.5" y="8398.894061351491">
57
</text>
<text font-size="175.41160386140584" text-anchor="middle" x="5028.5" y="8951.394061351491">
58
</text>
<text font-size="175.41160386140584" text-anchor="middle" x="3939.5" y="6841.894061351492">
59
</text>
<text font-size="175.41160386140584" text-anchor="middle" x="4716.5" y="614.394061351492">
60
</text>
<text font-size="175.41160386140584" text-anchor="middle" x="8724.5" y="4478.894061351492">
61
</text>
<text font-size="175.41160386140584" text-anchor="middle" x="4013" y="3416.894061351492">
62
</text>
<text font-size="175.41160386140584" text-anchor="middle" x="602" y="5351.894061351492">
63
</text>
<text font-size="175.41160386140584" text-anchor="middle" x="8140.5" y="5578.894061351492">
64
</text>
</svg>